<svg class="img-fluid" id="outputsvg" xmlns="http://www.w3.org/2000/svg" style="transform: none; transform-origin: 50% 50%; cursor: move;" width="978" height="184" viewBox="0 0 9780 1840"><g id="l0zbz7LCDM7wztg4wNNfP9" fill="rgb(7,211,206)" style="transform: none;"><g style="transform: none;"><path id="pTjK8VZHy" d="M2249 1549 c-148 -22 -298 -109 -383 -221 -93 -123 -126 -223 -126 -378 0 -163 55 -295 172 -410 118 -118 249 -171 418 -171 176 0 302 53 422 180 86 90 121 151 148 257 55 213 2 412 -149 564 -140 140 -324 206 -502 179z m188 -291 c74 -27 153 -101 184 -171 32 -73 32 -182 1 -253 -29 -64 -102 -136 -167 -165 -71 -32 -181 -32 -250 -1 -137 62 -214 209 -184 350 15 76 38 118 91 170 89 86 212 113 325 70z"></path><path id="p1FLsJCDi5" d="M3750 1549 c-181 -19 -325 -120 -381 -267 -35 -94 -39 -151 -39 -529 l0 -363 139 0 140 0 3 387 c3 339 5 392 20 418 40 73 119 114 219 115 91 0 161 -36 204 -105 l30 -48 3 -389 3 -389 137 3 137 3 3 360 c1 198 -2 387 -7 420 -16 106 -47 171 -117 245 -73 77 -141 111 -272 136 -80 15 -107 16 -222 3z"></path><path id="pyEuunAqI" d="M5352 1428 c3 -118 4 -123 25 -126 33 -5 83 -56 83 -84 0 -14 -10 -34 -22 -45 -25 -23 -117 -57 -183 -68 -22 -4 -83 -20 -135 -36 -200 -62 -290 -171 -290 -350 0 -123 60 -220 178 -286 112 -63 232 -77 397 -48 86 15 232 82 294 133 l34 29 -74 96 c-41 53 -78 96 -82 96 -5 1 -25 -12 -45 -28 -57 -45 -112 -70 -193 -87 -136 -29 -224 -2 -224 67 0 45 27 59 214 109 184 49 250 80 317 152 64 68 88 134 87 238 -1 175 -103 296 -290 345 -100 26 -94 33 -91 -107z"></path><path id="p8x60J2D9" d="M6722 1428 c3 -118 4 -123 25 -126 33 -5 83 -56 83 -84 0 -49 -83 -92 -227 -117 -151 -28 -288 -97 -344 -174 -39 -54 -59 -126 -59 -210 0 -56 6 -81 29 -131 17 -33 45 -75 63 -93 48 -45 154 -99 223 -113 74 -15 238 -7 315 16 67 19 193 84 239 123 l34 28 -73 94 c-41 52 -75 96 -77 98 -1 2 -29 -14 -61 -37 -69 -48 -114 -66 -205 -82 -123 -22 -211 10 -205 73 4 43 35 58 218 108 180 48 247 79 312 145 65 65 91 134 91 239 -1 180 -101 301 -290 350 -100 26 -94 33 -91 -107z"></path><path id="pR53WcKQr" d="M800 1295 l0 -244 -102 -158 c-57 -87 -154 -234 -215 -328 l-113 -170 147 -3 c81 -1 152 -1 158 2 6 2 67 93 134 201 l123 196 22 -33 c12 -18 69 -108 125 -200 l103 -168 154 0 c144 0 154 1 145 18 -5 9 -100 156 -210 327 l-201 310 0 248 0 247 -135 0 -135 0 0 -245z"></path><path id="pCUP28uSO" d="M7518 1533 c-2 -5 -2 -61 0 -126 l4 -117 401 2 402 3 3 123 3 122 -405 0 c-223 0 -406 -3 -408 -7z"></path><path id="pX9MJplFO" d="M8740 965 l0 -575 405 0 405 0 0 120 0 120 -270 0 -270 0 0 105 0 105 263 2 262 3 3 123 3 122 -266 0 -265 0 0 225 0 225 -135 0 -135 0 0 -575z"></path><path id="psLHTK9ci" d="M7519 1078 c0 -7 0 -62 0 -123 l0 -110 403 0 403 0 3 123 3 122 -406 0 c-317 0 -405 -3 -406 -12z"></path><path id="phY7d144y" d="M7514 608 c3 -13 6 -67 6 -120 l0 -98 405 0 405 0 0 120 0 120 -411 0 -411 0 6 -22z"></path></g></g><g id="l2mskyPEOvt8b9s3SuC2DYT" fill="rgb(39,192,10)" style="transform: none;"><g style="transform: none;"><path id="p1FnHuIq0w" d="M5033 1516 c-75 -28 -152 -74 -212 -126 l-44 -38 48 -71 c27 -39 60 -85 75 -103 l27 -32 43 42 c23 22 76 56 116 74 l74 33 0 123 0 122 -32 -1 c-18 0 -61 -10 -95 -23z"></path><path id="pNgJUIvf4" d="M6385 1507 c-78 -32 -134 -66 -205 -126 l-34 -29 38 -53 c21 -30 52 -75 69 -101 18 -26 35 -48 39 -48 5 0 27 18 50 40 23 22 75 54 115 72 l73 33 0 123 0 122 -32 0 c-18 0 -69 -15 -113 -33z"></path></g></g></svg>