<svg class="img-fluid" id="outputsvg" xmlns="http://www.w3.org/2000/svg"  width="892" height="264" viewBox="0 0 8920 2640"><g id="l4Rnm8MMM4nahZdlqzq3vxu" fill="rgb(255,255,255)" style="transform: none;"><g style="transform: none;"><path id="pBVvgOkUv" d="M133 2373 c-13 -2 -23 -7 -23 -10 0 -2 78 -174 174 -381 218 -472 240 -522 277 -602 17 -36 125 -271 242 -524 l212 -459 119 1 120 0 19 37 c18 35 326 702 427 925 27 58 79 173 117 255 39 83 109 236 157 340 48 105 111 239 139 298 42 90 48 110 36 118 -15 10 -292 10 -306 0 -5 -3 -117 -244 -250 -536 -133 -291 -289 -633 -346 -760 -58 -126 -109 -229 -113 -228 -5 0 -163 342 -353 760 -189 417 -346 760 -348 763 -6 6 -270 9 -300 3z"></path><path id="pviPXbFsJ" d="M2507 2373 c-4 -3 -7 -66 -7 -139 l0 -132 508 -5 c521 -5 588 -10 683 -50 85 -35 138 -116 147 -223 13 -166 -75 -259 -280 -294 -38 -7 -256 -12 -558 -13 l-495 -2 -3 -142 -3 -143 455 0 c466 0 548 -6 637 -43 92 -38 149 -128 149 -235 0 -135 -74 -215 -235 -257 -49 -12 -150 -15 -530 -17 l-470 -3 -3 -137 -3 -138 193 -1 c818 -5 844 -3 1004 57 91 34 112 46 178 100 217 176 230 547 26 752 -18 18 -31 34 -29 36 2 1 22 13 44 26 85 50 157 142 197 251 20 55 23 82 22 194 -1 107 -5 141 -22 189 -71 193 -231 306 -499 353 -69 12 -197 16 -594 19 -278 2 -509 1 -512 -3z"></path><path id="pBHZbRtUn" d="M4667 2374 c-4 -4 -7 -247 -7 -541 l0 -533 150 0 150 0 0 395 0 395 291 0 c254 0 304 -3 391 -20 290 -60 472 -223 545 -490 25 -92 25 -299 -1 -395 -61 -229 -246 -408 -491 -475 -89 -24 -98 -24 -563 -28 l-473 -3 3 -142 3 -142 350 -3 c359 -3 610 8 725 32 165 35 357 137 475 251 200 195 295 424 295 714 0 441 -251 790 -666 926 -165 54 -195 57 -699 62 -259 2 -474 1 -478 -3z"></path></g></g><g id="l4fLFbw0jOHTlyfp2cxf6fT" fill="rgb(255,69,0)" style="transform: none;"><g style="transform: none;"><path id="pc8IwNQw3" d="M7760 2451 c-52 -32 -117 -70 -145 -85 -27 -16 -102 -59 -165 -96 -63 -37 -139 -80 -167 -96 l-53 -29 0 -375 0 -375 112 -65 c61 -36 117 -66 125 -68 10 -3 13 67 15 368 l3 372 40 22 c192 109 351 202 353 208 2 4 8 8 13 8 4 0 48 23 96 51 154 90 148 73 43 135 -50 30 -95 54 -99 54 -5 0 -14 7 -21 15 -21 25 -50 16 -150 -44z"></path><path id="pgGYmQdb" d="M8035 2243 c-83 -47 -208 -121 -280 -162 -71 -42 -147 -85 -167 -96 -21 -11 -38 -24 -39 -30 -3 -45 0 -268 5 -272 3 -3 11 -1 18 4 7 6 42 26 78 46 36 19 148 83 250 142 314 182 284 168 322 149 18 -9 74 -40 123 -69 254 -149 338 -197 391 -226 33 -18 66 -38 75 -45 9 -8 19 -11 22 -7 4 3 7 68 7 144 l0 138 -52 29 c-29 17 -69 39 -88 50 -19 10 -84 48 -145 84 -160 94 -360 208 -365 208 -3 0 -73 -39 -155 -87z"></path><path id="plvwoJP9G" d="M7033 2026 l-122 -71 -1 -376 0 -376 27 -14 c16 -7 75 -41 133 -74 270 -157 389 -225 436 -251 l50 -28 122 70 c67 38 122 71 122 74 0 4 -174 106 -305 178 -27 15 -52 30 -55 33 -3 4 -23 15 -45 27 -22 11 -83 45 -135 76 l-95 57 -5 373 -5 373 -122 -71z"></path><path id="penFSAHHg" d="M8170 1952 c-43 -19 -220 -127 -220 -134 0 -5 8 -12 18 -15 9 -4 64 -34 122 -68 247 -144 377 -220 429 -248 31 -17 59 -35 63 -41 4 -6 8 -176 8 -378 l0 -367 123 73 122 72 0 374 0 374 -47 27 c-25 15 -66 38 -90 52 -60 34 -416 240 -458 266 -37 22 -46 24 -70 13z"></path><path id="pr4TbMm3A" d="M8270 1170 l0 -369 -92 -55 c-51 -29 -109 -63 -128 -73 -19 -11 -111 -64 -205 -118 -93 -54 -180 -103 -192 -109 -13 -6 -23 -14 -23 -18 0 -8 231 -141 245 -141 6 0 52 25 104 57 51 31 95 56 97 56 2 0 52 28 111 63 60 35 159 92 220 128 l113 64 0 372 0 372 -119 71 c-65 38 -121 70 -125 70 -3 0 -6 -166 -6 -370z"></path><path id="pxzv4YjJt" d="M6912 983 l3 -147 150 -85 c83 -47 198 -114 255 -148 58 -33 128 -73 155 -89 28 -15 57 -31 65 -37 12 -7 50 11 150 69 323 186 366 210 380 217 8 4 40 22 70 40 l55 33 3 142 c1 78 0 142 -3 142 -10 0 -67 -31 -168 -91 -54 -33 -99 -59 -102 -59 -2 0 -50 -27 -107 -61 -57 -34 -128 -75 -158 -91 -30 -17 -66 -37 -80 -45 -24 -14 -32 -11 -185 78 -88 50 -196 112 -240 136 -44 25 -84 49 -90 53 -5 4 -43 26 -83 48 l-73 41 3 -146z"></path></g></g></svg>